<?xml version="1.0" standalone="no"?>
<!DOCTYPE svg PUBLIC "-//W3C//DTD SVG 20010904//EN"
 "http://www.w3.org/TR/2001/REC-SVG-20010904/DTD/svg10.dtd">
<svg version="1.0" xmlns="http://www.w3.org/2000/svg"
 width="70.000000pt" height="70.000000pt" viewBox="0 0 70.000000 70.000000"
 preserveAspectRatio="xMidYMid meet">
<metadata>
Created by potrace 1.11, written by Peter Selinger 2001-2013
</metadata>
<g transform="translate(0.000000,70.000000) scale(0.100000,-0.100000)"
fill="#000000" stroke="none">
<path d="M347 683 c-10 -17 -7 -152 3 -158 12 -7 12 -9 14 83 1 66 -5 95 -17
75z"/>
<path d="M110 582 c0 -16 118 -124 124 -113 4 6 -18 36 -49 66 -53 52 -75 65
-75 47z"/>
<path d="M230 585 c0 -3 9 -24 21 -47 13 -26 24 -37 30 -31 12 12 -20 82 -38
83 -7 0 -13 -2 -13 -5z"/>
<path d="M436 555 c-19 -44 -20 -49 -9 -52 9 -3 43 59 43 77 0 23 -21 7 -34
-25z"/>
<path d="M522 537 c-53 -54 -61 -67 -40 -67 10 0 118 105 118 115 0 18 -33 -3
-78 -48z"/>
<path d="M110 461 c0 -11 22 -24 64 -41 33 -12 35 4 4 24 -33 20 -68 29 -68
17z"/>
<path d="M537 449 c-21 -11 -35 -24 -32 -30 4 -5 9 -8 13 -6 4 2 24 11 45 21
20 9 35 21 32 27 -8 12 -14 11 -58 -12z"/>
<path d="M263 448 c-5 -7 -25 -48 -43 -90 -46 -108 -45 -108 131 -106 97 1
142 5 150 14 7 9 1 35 -23 91 -18 43 -38 84 -44 91 -8 7 -41 12 -87 12 -48 0
-78 -4 -84 -12z"/>
<path d="M112 229 c-10 -4 -27 -24 -36 -46 -9 -21 -26 -55 -37 -76 -37 -75
-27 -80 150 -82 169 -1 169 0 110 131 -16 36 -35 67 -42 70 -22 8 -125 10
-145 3z m58 -89 c0 -5 -5 -10 -11 -10 -5 0 -7 5 -4 10 3 6 8 10 11 10 2 0 4
-4 4 -10z"/>
<path d="M473 232 c-41 -3 -44 -5 -67 -55 -42 -93 -51 -124 -38 -139 16 -20
140 -18 152 2 5 8 10 10 10 4 0 -6 6 -11 13 -11 6 0 24 -3 40 -6 15 -3 27 -1
27 4 0 6 5 7 10 4 6 -3 19 -3 30 0 14 5 19 13 16 33 -4 33 -62 162 -73 163
-28 3 -84 4 -120 1z"/>
</g>
</svg>
